<svg width="1200" height="630" viewBox="0 0 1200 630" fill="none" xmlns="http://www.w3.org/2000/svg">
  <rect width="1200" height="630" fill="#05070b"/>
  <circle cx="260" cy="170" r="160" fill="#2563eb" opacity="0.16"/>
  <circle cx="950" cy="470" r="210" fill="#38bdf8" opacity="0.10"/>

  <g transform="translate(520 98)">
    <path d="M80 0 160 96 80 192 0 96 80 0Z" stroke="#93c5fd" stroke-width="6" stroke-linejoin="round"/>
    <path d="M80 34 132 96 80 158 28 96 80 34Z" stroke="#dbeafe" stroke-width="4" stroke-linejoin="round" opacity="0.86"/>
    <path d="M0 96h160M80 0v192" stroke="#93c5fd" stroke-width="3" stroke-linecap="round" opacity="0.55"/>
    <circle cx="80" cy="96" r="10" fill="#f8fafc"/>
    <circle cx="80" cy="0" r="6" fill="#93c5fd"/>
    <circle cx="160" cy="96" r="6" fill="#93c5fd"/>
    <circle cx="80" cy="192" r="6" fill="#93c5fd"/>
    <circle cx="0" cy="96" r="6" fill="#93c5fd"/>
  </g>

  <text x="600" y="390" font-size="82" text-anchor="middle"
        fill="#eff6ff"
        font-family="Inter, system-ui, -apple-system, 'Segoe UI', Helvetica, Arial, sans-serif"
        font-weight="760">José Luis Delgado</text>

  <line x1="370" y1="426" x2="830" y2="426" stroke="#93c5fd" stroke-width="1.5" stroke-opacity="0.35"/>

  <text x="600" y="472" font-size="26" text-anchor="middle"
        fill="#bfdbfe"
        font-family="Inter, system-ui, -apple-system, 'Segoe UI', Helvetica, Arial, sans-serif"
        font-weight="560">systems security · formal methods · cryptographic infrastructure</text>

  <text x="600" y="526" font-size="16" text-anchor="middle" letter-spacing="2"
        fill="#93a4b8"
        font-family="Inter, system-ui, -apple-system, 'Segoe UI', Helvetica, Arial, sans-serif"
        font-weight="620">hypergalois.github.io</text>

  <path d="M36 60V36h24" stroke="#93c5fd" stroke-width="1.5" fill="none" stroke-opacity="0.45"/>
  <path d="M1140 36h24v24" stroke="#93c5fd" stroke-width="1.5" fill="none" stroke-opacity="0.45"/>
  <path d="M36 570v24h24" stroke="#93c5fd" stroke-width="1.5" fill="none" stroke-opacity="0.45"/>
  <path d="M1164 570v24h-24" stroke="#93c5fd" stroke-width="1.5" fill="none" stroke-opacity="0.45"/>
</svg>
