<svg width="880" height="260" viewBox="0 0 880 260" fill="none" xmlns="http://www.w3.org/2000/svg">
  <!-- Background -->
  <rect width="880" height="260" fill="#3b82f6"/>

  <!-- Geometric mark -->
  <g transform="translate(370, 35)"
     stroke="#dbeafe" stroke-linecap="round" stroke-linejoin="round" fill="none" opacity="0.95">
    <path d="M70 0 140 84 70 168 0 84 70 0Z" stroke-width="5"/>
    <path d="M70 30 115 84 70 138 25 84 70 30Z" stroke-width="3.5" opacity=".86"/>
    <path d="M0 84h140M70 0v168" stroke-width="2.2" opacity=".58"/>
    <circle cx="70" cy="84" r="8" fill="#eff6ff" stroke="none"/>
  </g>

  <!-- Wordmark -->
  <text x="440" y="209"
        text-anchor="middle"
        font-family="system-ui, -apple-system, 'Segoe UI', Helvetica, Arial, sans-serif"
        font-weight="800" font-size="62" letter-spacing="-1.5"
        fill="#eff6ff">José Luis Delgado</text>

  <!-- Corner marks -->
  <path d="M 30 50 L 30 30 L 50 30"     stroke="#93c5fd" stroke-width="1.5" fill="none" stroke-opacity="0.45"/>
  <path d="M 830 30 L 850 30 L 850 50"   stroke="#93c5fd" stroke-width="1.5" fill="none" stroke-opacity="0.45"/>
  <path d="M 30 210 L 30 230 L 50 230"   stroke="#93c5fd" stroke-width="1.5" fill="none" stroke-opacity="0.45"/>
  <path d="M 830 230 L 850 230 L 850 210" stroke="#93c5fd" stroke-width="1.5" fill="none" stroke-opacity="0.45"/>
</svg>
