<svg xmlns="http://www.w3.org/2000/svg" viewBox="0 0 1200 630" role="img" aria-labelledby="title desc">
  <title id="title">Portfolio grammar diagram</title>
  <desc id="desc">Editorial diagram showing notes, projects, and papers as connected research outputs.</desc>
  <rect width="1200" height="630" fill="#020617"/>
  <defs>
    <linearGradient id="g" x1="120" x2="1080" y1="120" y2="520" gradientUnits="userSpaceOnUse">
      <stop stop-color="#60a5fa"/>
      <stop offset="1" stop-color="#2563eb"/>
    </linearGradient>
    <filter id="soft" x="-20%" y="-20%" width="140%" height="140%">
      <feGaussianBlur stdDeviation="22"/>
    </filter>
  </defs>
  <circle cx="260" cy="180" r="110" fill="#2563eb" opacity=".22" filter="url(#soft)"/>
  <circle cx="950" cy="470" r="160" fill="#38bdf8" opacity=".16" filter="url(#soft)"/>
  <path d="M230 334h740" stroke="url(#g)" stroke-width="6" stroke-linecap="round" opacity=".75"/>
  <g fill="none" stroke="#93c5fd" stroke-width="2" opacity=".42">
    <path d="M340 250c82 38 142 38 226 0"/>
    <path d="M630 250c82 38 142 38 226 0"/>
    <path d="M340 418c82-38 142-38 226 0"/>
    <path d="M630 418c82-38 142-38 226 0"/>
  </g>
  <g font-family="Outfit, Inter, system-ui, sans-serif">
    <g transform="translate(175 235)">
      <rect width="250" height="198" rx="22" fill="#0f172a" stroke="#1d4ed8"/>
      <text x="34" y="62" fill="#bfdbfe" font-size="24" font-weight="700">Notes</text>
      <text x="34" y="104" fill="#e5e7eb" font-size="44" font-weight="800">Observation</text>
      <text x="34" y="145" fill="#94a3b8" font-size="20">short, public, useful</text>
    </g>
    <g transform="translate(475 205)">
      <rect width="250" height="258" rx="22" fill="#111827" stroke="#60a5fa"/>
      <text x="34" y="66" fill="#bfdbfe" font-size="24" font-weight="700">Projects</text>
      <text x="34" y="112" fill="#f8fafc" font-size="44" font-weight="800">Material</text>
      <text x="34" y="154" fill="#94a3b8" font-size="20">code, data, harness</text>
      <path d="M35 196h180" stroke="#60a5fa" stroke-width="4" stroke-linecap="round"/>
      <path d="M35 221h132" stroke="#1d4ed8" stroke-width="4" stroke-linecap="round"/>
    </g>
    <g transform="translate(775 235)">
      <rect width="250" height="198" rx="22" fill="#0f172a" stroke="#1d4ed8"/>
      <text x="34" y="62" fill="#bfdbfe" font-size="24" font-weight="700">Papers</text>
      <text x="34" y="104" fill="#e5e7eb" font-size="44" font-weight="800">Claim</text>
      <text x="34" y="145" fill="#94a3b8" font-size="20">argument and evidence</text>
    </g>
    <text x="600" y="550" fill="#dbeafe" font-size="26" font-weight="700" text-anchor="middle">A portfolio should show the path from idea to evidence.</text>
  </g>
</svg>
